<svg class="dice-logo" xmlns="http://www.w3.org/2000/svg" viewBox="0 0 34 20">
  <path fill="black" d="M 0 10 C 11 23 23 23 34 10 C 23 -3 11 -3 0 10" />
  <path fill="white" d="M 2 10 C 11 21 23 21 32 10 C 23 -1 11 -1 2 10" />
  <path fill="black" d="M 10 10 A 1 1 0 0 0 24 10 A 1 1 0 0 0 10 10" />
  <path fill="rgb(175, 75, 200)" d="M 11 10 A 1 1 0 0 0 23 10 A 1 1 0 0 0 11 10" />
  <path fill="black" d="M 17 6.5 L 20 8.5 L 20 11.5 L 17 13.5 L 14 11.5 L 14 8.5 L 17 6.5 L 15 9 " />
  <g class="dice-eye" fill="none" stroke="rgb(175, 75, 200)" stroke-width="0.25">
    <path d="M 17 6.5 L 17 6.5 L 19 9 L 20 8.5 L 17 6.5" />
    <path d="M 17 6.5 L 15 9 L 14 8.5 L 17 6.5" />
    <path d="M 15 9 L 14 11.5 L 14 8.5" />
    <path d="M 19 9 L 20 11.5 L 20 8.5" />
    <path d="M 17 12 L 19 9 L 15 9 L 17 12" />
    <path d="M 17 13.5 L 20 11.5 L 17 12 L 17 13.5" />
    <path d="M 17 13.5 L 17 12 L 14 11.5 L 17 13.5" />
  </g>
</svg>